<?xml version="1.0" encoding="utf-8"?>
<!-- Generator: Adobe Illustrator 18.0.0, SVG Export Plug-In . SVG Version: 6.00 Build 0)  -->
<!DOCTYPE svg PUBLIC "-//W3C//DTD SVG 1.1//EN" "http://www.w3.org/Graphics/SVG/1.1/DTD/svg11.dtd">
<svg version="1.1" id="everyman" xmlns="http://www.w3.org/2000/svg" xmlns:xlink="http://www.w3.org/1999/xlink" x="0px" y="0px"
	 viewBox="0 0 100 100" enable-background="new 0 0 100 100" xml:space="preserve">
<path d="M51,49.9"/>
<path d="M50,50l29.6-11.1c-2.4-6.4-6.9-12.1-13.3-15.9c-5.1-3-10.6-4.5-16.1-4.5L50,50z"/>
<path d="M31.3,75.7c0.8,0.6,1.5,1.1,2.3,1.6c0.5,0.3,1,0.6,1.5,0.8L50,50L31.3,75.7z"/>
<path d="M18.4,53.1L50,50l-31.7-1.2C18.2,50.2,18.3,51.7,18.4,53.1z"/>
<path d="M62.1,79.4c1.2-0.5,2.3-1,3.4-1.7L50,50L62.1,79.4z"/>
</svg>
